<svg width="1044" height="600" viewBox="0 0 1044 600" fill="none" xmlns="http://www.w3.org/2000/svg">
<path d="M129.249 279.228C129.249 347.646 184.239 400.229 251.641 400.229C319.042 400.229 374.17 347.715 374.17 279.228C374.17 210.74 321.647 157.815 251.641 157.815C181.634 157.815 129.249 212.523 129.249 279.228ZM332.481 279.502C332.481 325.366 296.621 362.18 251.641 362.18C206.661 362.18 171.006 325.434 171.006 279.502C171.006 233.569 205.495 195.795 251.641 195.795C297.786 195.795 332.481 234.255 332.481 279.502Z" fill="black"/>
<path d="M426.212 244.813H398.854C395.425 244.813 392.957 247.281 392.957 250.503V471.115C392.957 474.337 395.563 477.011 398.854 477.011H426.212C429.435 477.011 431.903 474.543 431.903 471.115V384.118C443.765 393.236 458.781 398.789 475.649 398.789C517.063 398.789 553.404 364.648 553.404 320.772C553.404 276.897 517.132 242.893 475.649 242.893C458.781 242.893 443.834 248.446 431.903 257.564V250.434C431.903 247.281 429.366 244.744 426.212 244.744V244.813ZM478.254 279.913C492.859 281.696 505.544 291.773 510.892 305.484C521.932 333.798 500.264 362.249 473.043 362.249C450.005 362.249 431.972 343.259 431.972 320.841C431.972 296.915 452.885 276.76 478.323 279.913H478.254Z" fill="black"/>
<path d="M720.776 330.233C721.118 327.011 721.256 323.309 721.256 320.978C721.256 277.377 692.663 242.962 644.323 242.962C599.069 242.962 567.803 279.913 567.803 320.841C567.803 361.769 595.641 400.229 648.78 400.229C677.03 400.229 694.652 388.3 708.571 372.258C710.285 370.544 710.079 367.322 707.679 365.471L688.686 350.32C686.561 348.469 683.407 349.36 681.761 350.937C671.27 360.192 663.179 365.128 647.615 365.128C625.673 365.128 611.137 352.171 606.68 333.798H717.004C719.816 333.798 720.844 332.564 720.844 330.233H720.776ZM607.366 305.21C612.92 288.208 627.456 278.336 645.215 278.336C667.019 278.336 678.881 288.825 682.172 305.21H607.366Z" fill="black"/>
<path d="M885.61 84.3921C787.217 29.9589 656.94 0 518.64 0C380.341 0 249.995 29.9589 151.67 84.3921C49.4368 140.951 0 217.527 0 300C0 382.473 49.4368 458.981 151.67 515.539C249.995 569.973 380.341 600 518.64 600C576.031 600 633.421 594.927 689.783 583.958C741.551 573.88 792.634 558.935 840.905 537.614C854.961 531.444 869.703 525.823 882.731 517.665C890.89 512.523 898.432 504.159 896.581 493.807C894.867 484.141 885.953 476.737 876.148 476.737C872.446 476.737 868.949 477.765 865.932 479.479C865.795 479.479 865.726 479.479 865.589 479.548C773.366 530.827 650.014 558.798 518.572 558.798C387.129 558.798 263.846 530.622 171.486 479.548C82.966 430.53 41.0716 366.705 41.0716 299.931C41.0716 233.158 82.966 169.333 171.486 120.315C263.846 69.1728 387.129 41.0649 518.572 41.0649C650.014 41.0649 773.229 69.1728 865.589 120.315C954.109 169.333 1002.86 233.09 1002.86 299.931C1002.86 312.683 1001.08 325.297 997.58 337.706C997.58 337.843 997.512 338.048 997.443 338.186C988.872 368.35 965.217 392.276 935.321 402.011C913.517 409.141 896.101 410.238 887.462 405.507C881.771 402.422 878.754 400.914 877.451 383.295V311.449C877.451 261.266 848.721 242.824 817.044 242.824C799.422 242.824 785.983 248.857 776.589 257.633V250.366C776.589 247.212 774.052 244.676 770.898 244.676H743.54C740.111 244.676 737.643 247.144 737.643 250.366V390.973C737.643 394.196 740.249 396.869 743.54 396.869H770.898C774.121 396.869 776.589 394.401 776.589 390.973V316.179C776.589 289.58 788.314 280.05 808.267 280.05C827.534 280.05 835.762 294.927 837.339 312.409C840.905 352.377 824.517 418.122 867.989 441.705C880.879 448.697 896.444 450.617 913.106 448.972C926.476 447.669 940.601 444.104 954.726 438.963C995.866 424.017 1026.65 389.123 1037.83 346.755L1038.03 346.069C1040.85 335.375 1042.7 324.474 1043.45 313.505C1043.86 308.981 1044 304.456 1044 299.931C1044 217.459 987.775 140.882 885.542 84.3236L885.61 84.3921Z" fill="black"/>
</svg>
